<?xml version="1.0" encoding="utf-8"?>
<!-- Generator: Adobe Illustrator 16.0.0, SVG Export Plug-In . SVG Version: 6.00 Build 0)  -->
<!DOCTYPE svg PUBLIC "-//W3C//DTD SVG 1.1//EN" "http://www.w3.org/Graphics/SVG/1.1/DTD/svg11.dtd">
<svg version="1.1" id="Layer_1" xmlns="http://www.w3.org/2000/svg" xmlns:xlink="http://www.w3.org/1999/xlink" x="0px" y="0px"
	 width="34.333px" height="40.691px" viewBox="0 0 34.333 40.691" enable-background="new 0 0 34.333 40.691" xml:space="preserve">
<g>
	<ellipse fill-rule="evenodd" clip-rule="evenodd" fill="#FFFFFF" cx="11.878" cy="18.908" rx="2.038" ry="2.084"/>
	<path fill-rule="evenodd" clip-rule="evenodd" fill="#FFFFFF" d="M29.385,11.824h-4.091c0.012-0.014,0.019-0.027,0.031-0.041
		c0-5.294-1.426-11.252-8.15-11.252c-6.724,0-8.15,5.958-8.15,11.252c0,0.015,0,0.026,0.001,0.041H4.948
		c-2.699,0-4.586,2.637-4.228,5.763l2.117,18.505c0.261,2.28,2.239,4.068,4.427,4.068h19.805c2.188,0,4.165-1.788,4.427-4.068
		l2.117-18.505C33.971,14.461,32.084,11.824,29.385,11.824z M11.878,11.783c0-3.441,0-7.918,5.297-7.918s5.297,4.477,5.297,7.918
		c0.006,0.01,0.006,0.029,0.012,0.041H11.877C11.877,11.809,11.878,11.798,11.878,11.783z M31.178,19.07L29.374,34.31
		c-0.222,1.878-1.906,3.351-3.769,3.351H8.742c-1.862,0-3.547-1.473-3.769-3.351L3.17,19.07c-0.305-2.574,1.302-4.746,3.6-4.746
		h20.807C29.875,14.324,31.481,16.496,31.178,19.07z"/>
	<ellipse fill-rule="evenodd" clip-rule="evenodd" fill="#FFFFFF" cx="22.473" cy="18.908" rx="2.037" ry="2.084"/>
</g>
</svg>
